<?xml version="1.0" encoding="utf-8"?>
<!-- Generator: Adobe Illustrator 15.1.0, SVG Export Plug-In . SVG Version: 6.00 Build 0)  -->
<!DOCTYPE svg PUBLIC "-//W3C//DTD SVG 1.1//EN" "http://www.w3.org/Graphics/SVG/1.1/DTD/svg11.dtd">
<svg version="1.1" id="Layer_1" xmlns="http://www.w3.org/2000/svg" xmlns:xlink="http://www.w3.org/1999/xlink" x="0px" y="0px"
	 width="99.849px" height="100px" viewBox="0 0 99.849 100" enable-background="new 0 0 99.849 100" xml:space="preserve">
<path fill="#010101" d="M99.307,14.812c-0.018-0.009-0.059-0.056-0.126-0.122l0.014-0.004c-0.032-0.03-0.067-0.06-0.102-0.094
	c-0.396-0.426-1.349-1.396-2.752-2.314c0.083-0.25,0.152-0.514,0.162-0.836c-0.06-1.424-0.937-2.071-1.478-2.354
	c-0.252-0.854-0.611-1.845-1.121-2.894c-1.238-2.637-4.229-6.12-9.077-6.165C84.657,0.016,84.436,0,84.149,0
	c-1.425,0.011-4.472,0.238-7.408,2.493c-2.967,2.257-5.165,6.537-5.117,12.75l0.045,0.536c0,0,0.062,0.377,0.136,1.15
	c0.07,0.79,0.148,1.917,0.148,3.238c0.002,2.652-0.327,6.083-1.427,9.009c-1.138,2.955-2.837,5.279-5.793,6.634l-0.157,0.079
	c-0.128,0.106-13.389,6.856-20.705,13.774c-2.901,1.07-13.328,5.163-20.612,13.024c-1.339,0.597-4.552,2.048-8.1,3.836
	c-4.715,2.408-9.803,5.091-12.703,7.913l-0.295,0.338c-0.398,0.483-0.794,1.386-0.777,2.276c0.112,1.52,0.678,2.296,1.185,2.764
	c-0.078,0.083-0.153,0.173-0.227,0.27c-0.42,0.52-0.828,1.021-1.199,1.519c-0.186,0.253-0.364,0.495-0.558,0.831
	c-0.161,0.387-0.501,0.636-0.584,2.019c-0.021,0.631,0.245,1.788,1.142,2.593c0.881,0.787,1.849,0.913,2.381,0.913l0.733-0.082
	c8.25-1.84,19.964-3.506,29.549-4.692c6.767-0.836,12.472-1.447,15.256-1.728c1.232,1.533,3.182,3.891,4.505,5.097
	c0.371,0.336,0.809,0.538,1.261,0.681l2.552,6.368c-1.739,0-3.055,0-3.058-0.008c-1.251,0-2.262,1.012-2.262,2.264
	c0,1.253,1.011,2.259,2.262,2.259l0,0c0,0,2.347,0,4.932,0h6.353c0.467,0,0.775,0,0.892,0.019h0.014
	c0.134,0.094,0.56,0.492,1.261,1.197c0.441,0.447,1.017,0.668,1.598,0.668c0.572,0,1.157-0.222,1.597-0.668
	c0.877-0.878,0.877-2.31,0-3.188c-0.95-0.919-1.438-1.52-2.469-2.071c-0.984-0.471-1.798-0.471-2.58-0.471h-0.312
	c-0.592,0-1.922,0-3.466,0c-0.026-0.15-0.024-0.311-0.086-0.466l-3.133-7.834c0.162-0.398,0.279-0.822,0.279-1.271
	c0.015-1.77,0.981-3.107,4.114-4.967c4.578-2.674,12.484-4.782,19.467-8.285c6.898-3.378,13.68-9.211,13.62-18.98
	c-0.061-5.5-2.525-9.783-4.539-14.798c-2.041-4.974-3.961-10.718-4.022-19.13c0.102-1.007,0.395-1.464,0.664-1.735
	c0.335-0.312,0.928-0.555,1.868-0.557c1.844-0.053,4.584,1.177,5.619,2.292c0.86,0.86,2.238,0.893,3.135,0.063
	C100.014,17.113,100.094,15.724,99.307,14.812z M85.767,4.49c0.588,0,1.068,0.481,1.068,1.077c0,0.593-0.48,1.079-1.068,1.079
	c-0.596,0-1.076-0.486-1.076-1.079C84.69,4.971,85.171,4.49,85.767,4.49z M91.229,41.228c0.493,0.794,0.248,1.834-0.546,2.329
	c-0.275,0.171-0.589,0.25-0.891,0.25c-0.564,0-1.116-0.276-1.438-0.792c-3.189-5.08-7.923-5.867-10.905-5.896
	c-1.47,0-2.336,0.206-2.336,0.206h-0.002c-0.915,0.199-1.828-0.371-2.028-1.285c-0.205-0.909,0.372-1.819,1.28-2.028
	c0.091-0.016,1.288-0.275,3.086-0.275C80.985,33.708,87.241,34.832,91.229,41.228z"/>
</svg>
