<svg xmlns="http://www.w3.org/2000/svg" xmlns:xlink="http://www.w3.org/1999/xlink" version="1.1" id="Layer_1" x="0px" y="0px" width="100px" height="100px" viewBox="0 0 100 100" enable-background="new 0 0 100 100" xml:space="preserve">
<path d="M76.6,43.9c-3.3,0-6.1,2.7-6.1,6.1s2.7,6.1,6.1,6.1c3.3,0,6.1-2.7,6.1-6.1S79.9,43.9,76.6,43.9z M76.6,54.5  c-2.5,0-4.5-2-4.5-4.5c0-2.5,2-4.5,4.5-4.5c2.5,0,4.5,2,4.5,4.5C81.1,52.5,79.1,54.5,76.6,54.5z"/>
<path d="M86.9,25.1H13.1c-4.4,0-8,3.6-8,8v33.7c0,4.4,3.6,8,8,8h73.8c4.4,0,8-3.6,8-8V33.1C94.9,28.7,91.4,25.1,86.9,25.1z   M64.6,69.1h-42v-6.4c0.9-0.8,2.4-1.6,4.5-2.2c5.2-1.6,10.8-3.5,10.8-7c0-0.6,0-1.3,0-1.4v-0.1c0-1.7-0.5-2.8-0.8-3.3  c-0.1-0.1-0.2-0.3-0.2-0.3c-1.7-0.5-2.4-2.7-2.2-4.1c0.1-0.6,0.4-0.9,0.6-1.1c0-0.4-0.1-1.1-0.1-1.6c-0.1-0.7-0.2-1.4-0.2-2  c0-0.1,0-0.5,0-0.6c0.1-1.2,0.4-2.4,1-3.4c1.5-2.8,4.4-4.6,7.6-4.6c3.2,0,6.1,1.7,7.6,4.6c0.6,0.9,0.9,2.1,1,3.4c0,0.1,0,0.6,0,0.6  c0,0.6-0.1,1.4-0.2,2c0,0.5-0.1,1.1-0.1,1.6c0.3,0.1,0.6,0.5,0.6,1.1c0.2,1.4-0.5,3.6-2.2,4.1c0,0.1-0.1,0.1-0.2,0.4  c-0.3,0.4-0.8,1.6-0.8,3.3V52c0,0.1,0,0.9,0,1.4c0,3.5,5.6,5.5,10.8,7c2,0.6,3.5,1.3,4.4,2.1V69.1z M76.6,57.1  c-3.9,0-7.1-3.2-7.1-7.1s3.2-7.1,7.1-7.1s7.1,3.2,7.1,7.1S80.5,57.1,76.6,57.1z"/>
</svg>