<svg xmlns="http://www.w3.org/2000/svg" xmlns:xlink="http://www.w3.org/1999/xlink" version="1.1" x="0px" y="0px" width="100px" height="100px" viewBox="0 0 100 100" enable-background="new 0 0 100 100" xml:space="preserve">
<g id="Calque_12">
</g>
<g id="Calque_1" display="none">
	<g display="inline">
		<path d="M77.1,58.9c2.7-20-15.4-41.8-23.1-51.1c-0.8-1-2-1.5-3.1-1.5c-0.6,0-1.2,0.1-1.7,0.4c-1.7,0.8-2.6,2.6-2.3,4.5    c2.6,13.8,1.3,21.4-0.8,24c-0.3,0.3-0.6,0.7-1,0.7c-0.3,0-1-0.3-1.6-1.1c-1.2-1.5-1.7-3.9-1.2-6.3c0.1-0.3,0.1-0.6,0.1-1    c0-2.2-1.8-4-3.9-4.1c-0.1,0-0.1,0-0.2,0c-0.1,0-0.2,0-0.3,0c-0.7,0-1.4,0.3-2,0.7c-0.3,0.2-0.5,0.4-0.8,0.7c0,0-0.1,0.1-0.1,0.1    c-9.4,11.4-13.7,24.3-12,35.5c1,6.7,4.2,12.4,9.1,16.7c-4.4,0.2-7.9,3.9-7.9,8.3c0,4.6,3.7,8.3,8.3,8.3h35.6    c4.6,0,8.3-3.7,8.3-8.3c0-4.6-3.7-8.3-8.3-8.3h-0.9C72.9,71.9,76.2,65.8,77.1,58.9z M38.2,27.4c-1.4,7,2.7,12.4,6.8,12.4    c4.9,0,10-7.7,5.9-29.5C62.4,24.3,88.8,57.2,61,76.7c0,0,10.3-11.5-4.6-26.4c1.9,15.1-4.6,23.9-10.4,23.9c-3.7,0-7.1-3.6-7.9-11.4    c-2.6,8.4-1.6,10.1-0.5,13.3C22.5,66.3,23.4,45.4,38.2,27.4z M72.3,85.3c0,2.3-1.9,4.2-4.2,4.2H32.5c-2.3,0-4.2-1.9-4.2-4.2    c0-2.3,1.9-4.2,4.2-4.2h35.6C70.4,81.1,72.3,83,72.3,85.3z M51.1,77c1.4-0.8,2.7-1.8,3.9-3.2c2.4-2.7,4.1-6.3,5-10.4    c1.7,6.3-1.8,10.3-2,10.5c-0.8,0.9-1.1,2-1,3.1H51.1z"/>
		<circle cx="33.6" cy="85.3" r="3.3"/>
		<circle cx="44.7" cy="85.3" r="3.3"/>
		<circle cx="55.8" cy="85.3" r="3.3"/>
		<circle cx="66.9" cy="85.3" r="3.3"/>
	</g>
</g>
<g id="Calque_3" display="none">
	<path display="inline" d="M94.2,30.4c0-0.6-0.1-0.9-0.1-1c-0.2-0.6-0.8-0.9-1.4-0.7c-0.6,0.2-0.9,0.8-0.7,1.3h0c0,0,0,0.2,0,0.4   c0,0.5-0.1,1.3-0.9,2.4c-0.2-0.3-0.4-0.5-0.6-0.7c-0.9-0.8-2-1.2-3.1-1.2c-1,0-2.1,0.3-2.7,1.2C84.2,32.6,84,33.3,84,34   c0,1.7,1.3,3.5,3.4,3.5c0.7,0,1.5-0.2,2.3-0.6c0,0.2-0.1,0.4-0.1,0.7c-0.3,0.9-0.9,1.4-1.8,1.8c-0.8,0.3-1.8,0.4-2.5,0.4   c-0.2,0-0.3,0-0.4,0c-2-3.4-4.8-6.3-8.3-8.8c-2.5-1.8-5.4-3.3-8.5-4.6c0.2-0.7,0.2-1.4,0.2-2.1c0-5.2-4.2-9.4-9.4-9.4   c-4.8,0-8.8,3.6-9.3,8.3c-6.7,0.1-13,1.4-18.4,3.8c-3.8-2.2-6.9-2.7-9-2.7c-2.1,0-3.4,0.6-3.6,0.7L16,26.1l2.3,1.6   c1.7,1.1,2.7,2,3.3,2.7c0.6,0.7,0.7,1.1,0.7,1.2c0,0.2-0.2,0.6-1,1.3C18.7,35.3,16.5,38,15,41l-0.1,0.1c-1,2-2,3.5-2.9,4.3   c-1,0.9-1.8,1.2-2.5,1.2c-0.4,0-0.9-0.1-1.4-0.4l-2.4-1.2v16.6l2.1-0.5c0,0,0.2-0.1,0.7-0.1c0.5-0.1,1.2-0.2,2-0.2   c2.3,0,5.3,0.6,7.5,3.4c0,0,0.1,0.1,0.1,0.1c2.7,3.3,6.4,6.1,10.8,8.3c-0.1,0.8-0.3,2-0.6,3.3c-0.5,2.4-1.6,5.2-2.9,6.4l-2.8,2.8   h18.7l-0.2-1.8c0,0,0-0.5,0-1.2c0-1,0.1-2.4,0.4-3.5c0.3-1,0.7-1.5,1.2-1.8c2.4,0.4,4.9,0.6,7.6,0.6c5.2,0,10.2-0.8,14.7-2.1   c1.3,3.2,1.4,7.6,1.4,8.2c0,0.1,0,0.1,0,0.1l0.1,1.6h15.4l-1.1-2.3c-1.2-2.5-2-6.3-2.5-9.4c-0.2-1.5-0.4-2.9-0.5-3.9   c0-0.3,0-0.5-0.1-0.7c6.2-4.8,10.2-11.3,10.2-18.6c0-3-0.7-5.8-1.8-8.4c0.8,0,1.7-0.2,2.7-0.6c1.2-0.5,2.5-1.5,3-3.2   c0.2-0.9,0.3-1.6,0.3-2.3c0-0.2,0-0.5,0-0.7C93.8,33.3,94.3,31.5,94.2,30.4z M89.5,34.5c-0.9,0.6-1.5,0.8-2,0.8   c-0.8,0-1.2-0.6-1.3-1.3c0-0.2,0.1-0.5,0.2-0.6c0.1-0.2,0.5-0.4,1-0.4c0,0,0,0,0,0C88.2,33.1,89.1,33.4,89.5,34.5   C89.5,34.4,89.5,34.4,89.5,34.5z M54.8,24.2c0-0.2,0.1-0.3,0.1-0.3l0.6-0.2c-0.3-2.2,0.4-3.6,2.2-4c0.8-0.2,1.5-0.2,2.2,0.1   c0.7,0.2,1.1,0.7,1.2,1.3c0.1,0.2,0,0.4-0.1,0.6c-0.1,0.2-0.2,0.3-0.4,0.3c-0.2,0.1-0.4,0-0.5,0c-0.1-0.1-0.3-0.2-0.4-0.4   c-0.2-0.3-0.4-0.4-0.6-0.6c-0.2-0.1-0.5-0.1-0.9,0c-0.5,0.1-0.8,0.4-0.9,0.8c-0.2,0.4-0.2,0.9-0.1,1.6l2-0.5c0.1,0,0.1,0,0.2,0.1   c0,0.1,0,0.3,0,0.4c0,0.2-0.1,0.3-0.1,0.3l-1.8,0.5l0.2,0.6c0,0.2,0.1,0.3,0.1,0.4l2-0.5c0.1,0,0.1,0,0.2,0.1c0,0.1,0,0.3,0,0.4   c0,0.2-0.1,0.3-0.1,0.3l-1.8,0.5c0.5,1.4,1.2,2,2,1.8c0.3-0.1,0.6-0.2,0.8-0.4c0.2-0.2,0.4-0.6,0.4-1.2c0.1-0.4,0.1-0.6,0.2-0.7   c0.1-0.1,0.2-0.2,0.3-0.2c0.2-0.1,0.5,0,0.6,0.1c0.2,0.1,0.3,0.3,0.4,0.5c0.2,0.6,0,1.2-0.4,1.9c-0.5,0.7-1.1,1.1-1.9,1.3   c-0.8,0.2-1.6,0.1-2.3-0.3c-0.7-0.4-1.3-1.2-1.8-2.3l-0.8,0.2c-0.1,0-0.1,0-0.2-0.1c0-0.1,0-0.2,0-0.4c0-0.2,0.1-0.3,0.1-0.3   l0.5-0.1l-0.1-0.2c0-0.2-0.1-0.4-0.2-0.8L55,24.7c-0.1,0-0.1,0-0.2-0.1C54.8,24.5,54.8,24.3,54.8,24.2z M75.1,66.8   c-0.1,0.1-0.3,0.2-0.6,0.7c-0.1,0.2-0.2,0.4-0.2,0.7h0c0,0,0,0.1,0,0.1l0.3,2.9c0.3,2.8,0.9,7.1,2.2,10.8h-7.3   c-0.1-2.2-0.6-6.2-2.3-9.4l-0.7-1.2l-1.3,0.4c-4.5,1.5-9.6,2.4-15,2.4c-2.6,0-4.9-0.2-7.3-0.6l-0.2,0l-0.3,0L42,73.7   c-2.1,0.7-3.1,2.5-3.6,4.1c-0.5,1.5-0.6,3-0.6,4.2h-8.2c0.9-1.7,1.4-3.5,1.8-5.2c0.4-1.6,0.6-3.1,0.7-4l2.2-1.1l-3.1-1.4   c-4.4-2.1-8.1-4.8-10.7-8c0,0-0.1-0.1-0.1-0.1c-3.1-3.8-7.3-4.6-10-4.5c-0.5,0-1,0-1.5,0.1v-7.8c0.2,0,0.3,0,0.5,0   c1.7,0,3.4-0.8,4.7-2.1c1.4-1.3,2.5-3,3.6-5.2l0.1-0.1c1.3-2.6,3.2-5,5.6-7.1c1-0.9,2.1-2,2.1-3.8c0-1.2-0.6-2.3-1.4-3.4   c-0.2-0.2-0.4-0.5-0.7-0.7c1.6,0.2,3.8,0.9,6.6,2.6l0.8,0.5l0.8-0.4c5.2-2.4,11.4-3.8,18.1-3.8c0.2,0.9,0.6,1.8,1.1,2.7   c-5-0.1-10.5,0.9-15.8,4c0,0,7.4-2.2,17.4-2c0.9,0,1.8,0,2.7,0.1c0,0,0,0,0,0c0.9,0.1,1.8,0.1,2.8,0.2c0,0,0.1,0,0.1,0   c0.9,0.1,1.9,0.2,2.8,0.4c0,0,0.1,0,0.1,0c1,0.2,1.9,0.3,2.9,0.5c1.5,0.3,3.1,0.7,4.6,1.2c0,0-1.5-0.8-3.9-1.7   c0.9-0.7,1.6-1.5,2.2-2.4c2.9,1.1,5.6,2.6,7.9,4.2c6.2,4.4,9.8,10.3,9.8,16.7C84.5,56.6,81,62.4,75.1,66.8z M74.3,68.4   C74.3,68.3,74.3,68.3,74.3,68.4C74.3,68.3,74.3,68.3,74.3,68.4C74.3,68.3,74.3,68.3,74.3,68.4z M23.4,40.9c-2.1,0-3.8,1.7-3.8,3.8   c0,2.1,1.7,3.8,3.8,3.8c2.1,0,3.8-1.7,3.8-3.8C27.1,42.6,25.4,40.9,23.4,40.9z"/>
</g>
<g id="Calque_4">
	<path d="M94.6,63.2l-7.2-40.9c-0.4-2.5-2.6-4.2-5-4.2c-0.3,0-0.6,0-0.9,0.1L9.5,30.9c-2.5,0.4-4.2,2.6-4.2,5c0,0.3,0,0.6,0.1,0.9   l7.2,40.9c0.4,2.5,2.6,4.2,5,4.2c0.3,0,0.6,0,0.9-0.1l71.9-12.7c2.5-0.4,4.2-2.6,4.2-5C94.6,63.8,94.6,63.5,94.6,63.2z M89.9,66.2   L18,78.8c-0.1,0-0.2,0-0.4,0c-1,0-1.9-0.7-2-1.7L8.4,36.2c0-0.1,0-0.2,0-0.4c0-1,0.7-1.9,1.7-2L82,21.2c0.1,0,0.3,0,0.4,0   c1,0,1.9,0.7,2,1.7l7.2,40.9c0,0.1,0,0.2,0,0.4C91.6,65.1,90.9,66,89.9,66.2z M22.7,64.5L53,59.2c1.1-0.2,1.8-1.2,1.6-2.3   c-0.2-1.1-1.2-1.8-2.3-1.6L22,60.6c-1.1,0.2-1.8,1.2-1.6,2.3c0.2,1,1,1.7,2,1.7C22.5,64.6,22.6,64.5,22.7,64.5z M29.4,39.9   c-0.2-1-1.2-1.7-2.2-1.5l-9.7,1.7c-1,0.2-1.7,1.2-1.5,2.2L29.4,39.9L29.4,39.9z M29.6,40.9l-13.4,2.4l0.2,1.2l13.4-2.4L29.6,40.9z    M30.3,45.1l-13.4,2.4l0.2,1.4l13.4-2.4L30.3,45.1z M31.1,49.6L17.7,52v0c0.2,1,1.2,1.7,2.2,1.5l9.7-1.7   C30.6,51.6,31.3,50.6,31.1,49.6z M30,43.1l-13.4,2.4l0.2,1l13.4-2.4L30,43.1z M30.8,47.5l-13.4,2.4l0.2,1.1L31,48.6L30.8,47.5z    M83.4,58.4L23.5,69c-1.1,0.2-1.8,1.2-1.6,2.3c0.2,1,1,1.7,2,1.7c0.1,0,0.2,0,0.3,0l59.9-10.6c1.1-0.2,1.8-1.2,1.6-2.3   C85.5,58.9,84.5,58.2,83.4,58.4z M71.9,42.3c0.1,0.6,0.3,1.1,0.7,1.4c0.3,0.2,0.6,0.3,1,0.3c0,0,0,0,0,0c0.2,0,0.4,0,0.5,0l3.6-0.6   c0.6-0.1,1.2-0.2,1.7-0.4c0.5-0.2,0.9-0.4,1.3-0.6c0.6-0.4,1.1-1,1.4-1.6c0.2-0.5,0.3-0.9,0.3-1.4c0-0.2,0-0.5-0.1-0.7   c-0.2-1.3-1-2.2-2.2-2.7c0.5-0.6,0.8-1.3,0.8-2.1c0-0.2,0-0.4-0.1-0.6c-0.1-0.4-0.2-0.8-0.4-1.1c-0.2-0.3-0.4-0.6-0.8-0.9   c-0.3-0.3-0.6-0.5-1-0.6c-0.4-0.2-0.9-0.2-1.3-0.2c0,0,0,0-0.1,0c-0.4,0-0.9,0.1-1.5,0.2l-3.8,0.7c-0.6,0.1-1.1,0.3-1.4,0.7   c-0.2,0.3-0.3,0.6-0.3,1c0,0.2,0,0.4,0.1,0.6L71.9,42.3z M78.3,38.2c0.3,0.1,0.4,0.3,0.5,0.8c0,0.1,0,0.2,0,0.3   c0,0.6-0.4,1-1.7,1.3l-2,0.4l-0.4-2.4l2-0.3h0c0.3-0.1,0.6-0.1,0.9-0.1C77.9,38.1,78.2,38.1,78.3,38.2z M75.3,33.5   c0.5-0.1,0.9-0.1,1.2-0.1c0.2,0,0.4,0,0.6,0.1c0.2,0.1,0.4,0.2,0.5,0.7c0,0.1,0,0.1,0,0.2c0,0.1,0,0.2-0.1,0.3   c-0.1,0.3-0.2,0.4-0.4,0.5c-0.2,0.1-0.6,0.3-1.2,0.4l-1.7,0.3l-0.4-2L75.3,33.5z M59,41.9c0.2,0.5,0.5,1,0.8,1.5   c0.3,0.5,0.7,0.9,1.1,1.2c0.5,0.4,0.9,0.7,1.5,0.9c0.5,0.2,1.1,0.3,1.6,0.3c0.1,0,0.2,0,0.4,0c0.5,0,1,0,1.5-0.1   c0.9-0.2,1.6-0.4,2.3-0.8c0.6-0.4,1.1-0.9,1.5-1.4c0.3-0.5,0.6-1.1,0.7-1.6c0.1-0.3,0.1-0.6,0.1-0.9c0-0.2,0-0.4,0-0.5v0   c-0.1-0.4-0.3-0.8-0.7-1c-0.3-0.2-0.6-0.3-0.9-0.3c-0.1,0-0.2,0-0.3,0c-0.4,0.1-0.8,0.3-1,0.7c-0.2,0.3-0.2,0.6-0.3,1   c-0.1,0.6-0.3,1.1-0.7,1.4c-0.3,0.3-0.8,0.6-1.4,0.7c-0.2,0-0.4,0-0.5,0c-0.3,0-0.6-0.1-0.9-0.2c-0.4-0.2-0.8-0.5-1.1-1   c-0.3-0.5-0.6-1.2-0.7-2c-0.1-0.5-0.1-0.9-0.1-1.3c0-0.7,0.1-1.3,0.4-1.7c0.4-0.7,0.9-1.1,1.8-1.3c0.2,0,0.3,0,0.5,0   c0.3,0,0.6,0.1,0.8,0.2c0.4,0.2,0.8,0.5,1.1,1c0.3,0.3,0.5,0.6,0.8,0.8c0.2,0.1,0.5,0.2,0.7,0.2c0.1,0,0.2,0,0.4,0   c0.4-0.1,0.8-0.3,1-0.7c0.2-0.3,0.3-0.6,0.3-0.9c0-0.1,0-0.2,0-0.3c-0.1-0.6-0.5-1.2-1-1.8c-0.6-0.6-1.3-1-2.2-1.2   c-0.5-0.2-1.1-0.2-1.7-0.2c-0.4,0-0.8,0-1.2,0.1c-0.8,0.1-1.6,0.4-2.3,0.9c-0.7,0.4-1.3,1-1.7,1.7c-0.5,0.7-0.8,1.5-0.9,2.3   c-0.1,0.4-0.1,0.8-0.1,1.2c0,0.5,0,1,0.1,1.6C58.6,40.8,58.8,41.4,59,41.9z"/>
</g>
<g id="Calque_5" display="none">
	<path display="inline" d="M65.8,12.9l0.5-1.2c0.4-1-0.1-2.1-1.1-2.4c-1-0.4-2.1,0.2-2.4,1.1l-0.4,1.2c-4.5-1.4-9.1-2.1-13.6-2.1   c-18.3,0-35.5,11.3-42.2,29.5c0,0,0,0.1,0,0.1c-0.2,0.5-0.1,0.9,0,1.4c0,0,0,0,0,0c0,0,0,0,0,0c0,0,0,0.1,0,0.1   c0.2,0.5,0.6,0.8,1.1,1c0.4,0.2,0.9,0.2,1.3,0c0,0,0,0,0,0c0,0,0.1,0,0.1,0c0,0,0,0,0,0c0,0,0,0,0,0c0,0,0,0,0,0c0,0,0,0,0,0   c0,0,0,0,0,0c0,0,0,0,0,0c0,0,0,0,0,0c0,0,0,0,0,0c0.3-0.2,0.6-0.4,0.8-0.7c0,0,0,0,0,0c0,0,0,0,0,0c0.1-0.1,0.1-0.2,0.1-0.3   c0,0,0,0,0,0c0,0,0,0,0,0c0.1-0.2,1.2-0.6,2.7-0.6c1.7,0,4.1,0.4,6.5,1.3c2.4,0.9,4.4,2,5.7,3.1c1.4,1.1,1.8,2.2,1.8,2.3l0,0   c-0.1,0.3-0.1,0.6-0.1,0.9c0,0,0,0,0,0c0,0,0,0,0,0c0,0,0,0,0,0c0,0,0,0,0,0c0,0,0,0,0,0c0,0,0,0,0,0c0,0,0,0,0,0c0,0,0,0,0,0   c0,0,0,0,0,0c0,0.1,0.1,0.3,0.1,0.4c0.1,0.2,0.2,0.3,0.3,0.4c0,0,0,0,0,0c0,0,0,0,0,0c0,0,0,0,0,0c0,0,0,0,0,0   c0.2,0.2,0.5,0.4,0.8,0.5c0.5,0.2,1,0.1,1.5-0.1c0.5-0.2,0.8-0.6,1-1.1c0,0,0,0,0,0c0.1-0.2,1.2-0.6,2.7-0.6c1.7,0,4.1,0.4,6.5,1.3   c2.4,0.9,4.4,2,5.7,3.1c1.4,1.1,1.8,2.2,1.8,2.3l-4.4,12l-0.1-0.1c-0.4-0.2-0.9-0.2-1.3-0.2c-1.6,0-3,1-3.6,2.5l-3.1,8.6   c-0.6,1.6-2.2,2.7-3.9,2.7c-0.5,0-1-0.1-1.4-0.3c-2.1-0.8-3.3-3.2-2.5-5.3c0.5-1.5,0.5-3.1-0.2-4.5c-0.7-1.4-1.8-2.5-3.3-3   c-0.6-0.2-1.3-0.4-2-0.4c-2.5,0-4.7,1.5-5.5,3.8c-3,8.2,1.3,17.3,9.5,20.3c1.8,0.6,3.6,1,5.4,1c6.6,0,12.6-4.2,14.9-10.4l3.1-8.6   c0.7-2-0.3-4.2-2.3-4.9L46.1,67l4.3-11.9c0,0,0,0,0,0c0,0,0,0,0,0c0.1-0.2,1.2-0.6,2.7-0.6c1.7,0,4.1,0.4,6.5,1.3   c2.4,0.9,4.4,2,5.7,3.1c1.4,1.1,1.8,2.2,1.8,2.3c0,0,0,0,0,0c-0.3,1,0.2,2.1,1.2,2.4c1,0.4,2.1-0.2,2.4-1.1c0,0,0,0,0,0   c0.1-0.2,1.2-0.6,2.7-0.6c1.7,0,4.1,0.4,6.5,1.3c2.4,0.9,4.4,2,5.7,3.1c1.4,1.1,1.8,2.2,1.8,2.3c0,0,0,0,0,0   c-0.3,1,0.2,2.1,1.2,2.4c0.2,0.1,0.4,0.1,0.6,0.1c0.8,0,1.5-0.5,1.8-1.3c1.8-5.1,2.7-10.3,2.7-15.4C93.7,36.6,83,19.9,65.8,12.9z    M41.8,79.2c-1.8,4.9-6.4,7.9-11.3,7.9c-1.4,0-2.8-0.2-4.1-0.7c-6.3-2.3-9.5-9.2-7.2-15.5c0.3-0.8,1.1-1.3,1.9-1.3   c0.2,0,0.5,0,0.7,0.1c1.1,0.4,1.6,1.6,1.2,2.6c-1.5,4.1,0.6,8.7,4.8,10.2c0.9,0.3,1.8,0.5,2.7,0.5c3.3,0,6.3-2,7.5-5.2l3.1-8.6   l3.9,1.4L41.8,79.2z M88.7,63.9c-0.2-0.2-0.5-0.4-0.7-0.6c-1.8-1.4-4.1-2.8-6.8-3.7c-2.8-1-5.5-1.5-7.8-1.5c-1.2,0-2.3,0.1-3.3,0.5   c-0.6-0.9-1.4-1.8-2.3-2.6c-1.8-1.5-4.1-2.8-6.8-3.7c-2.8-1-5.5-1.5-7.8-1.5c-1.2,0-2.3,0.1-3.3,0.5c-0.6-0.9-1.4-1.8-2.3-2.6   c-1.8-1.4-4.1-2.8-6.8-3.7c-2.8-1-5.5-1.5-7.8-1.5c-1.2,0-2.3,0.1-3.3,0.5c-0.6-0.9-1.4-1.8-2.3-2.6c-1.8-1.5-4.1-2.8-6.8-3.7v0   c-2.8-1-5.5-1.5-7.8-1.5c-0.3,0-0.6,0-0.8,0C19,21.8,33.4,13.2,48.7,13.2c4.7,0,9.4,0.8,14.1,2.5c16.7,6.1,27.1,21.9,27.1,38.7   C89.9,57.5,89.5,60.7,88.7,63.9z M31.9,40.3c0,0,7.6-19.9,24.5-22.7C56.4,17.6,38.8,17.6,31.9,40.3z M70.7,55.3   c11.2-20.9-1.3-33.4-1.3-33.4C79.3,35.9,70.7,55.3,70.7,55.3z"/>
</g>
<g id="Calque_6" display="none">
	<path display="inline" d="M50,63.2c-2.5,0-4.6,2.1-4.6,4.6s2.1,4.6,4.6,4.6c2.5,0,4.6-2.1,4.6-4.6S52.5,63.2,50,63.2z M50,75.3   c-2.5,0-4.6,2.1-4.6,4.6c0,2.5,2.1,4.6,4.6,4.6c2.5,0,4.6-2.1,4.6-4.6C54.6,77.4,52.5,75.3,50,75.3z M36.5,51.1   c-2.5,0-4.6,2.1-4.6,4.6c0,2.5,2.1,4.6,4.6,4.6c2.5,0,4.6-2.1,4.6-4.6C41.1,53.2,39.1,51.1,36.5,51.1z M36.5,75.3   c-2.5,0-4.6,2.1-4.6,4.6c0,2.5,2.1,4.6,4.6,4.6c2.5,0,4.6-2.1,4.6-4.6C41.1,77.4,39.1,75.3,36.5,75.3z M36.5,63.2   c-2.5,0-4.6,2.1-4.6,4.6s2.1,4.6,4.6,4.6c2.5,0,4.6-2.1,4.6-4.6S39.1,63.2,36.5,63.2z M50,51.1c-2.5,0-4.6,2.1-4.6,4.6   c0,2.5,2.1,4.6,4.6,4.6c2.5,0,4.6-2.1,4.6-4.6C54.6,53.2,52.5,51.1,50,51.1z M63.5,75.3c-2.5,0-4.6,2.1-4.6,4.6   c0,2.5,2.1,4.6,4.6,4.6c2.5,0,4.6-2.1,4.6-4.6C68.1,77.4,66,75.3,63.5,75.3z M62.1,17.7H37.9c-3.3,0-6,2.7-6,6v17.7   c0,3.3,2.7,6,6,6h24.2c3.3,0,6-2.7,6-6V23.7C68.1,20.4,65.4,17.7,62.1,17.7z M34.6,30.6c0,0,0-1.1,0-4.2c0-3.1,2.1-5.7,6.7-5.7   c4.5,0,19.6,0,19.6,0C35.6,22.2,34.6,30.6,34.6,30.6z M64.8,5.9L64.8,5.9l-0.2,0l-28.8,0h0h0c-8.9,0-16.2,7.3-16.2,16.2v56   c0,8.9,7.3,16.2,16.2,16.2h28.4c8.9,0,16.2-7.3,16.2-16.2V22C80.4,13.3,73.5,6.2,64.8,5.9z M76.1,78c0,6.6-5.3,11.9-11.9,11.9H35.8   c-6.6,0-11.9-5.3-11.9-11.9V22c0-6.6,5.3-11.9,11.9-11.9l28.8,0C71,10.3,76.1,15.6,76.1,22V78z M63.5,51.1c-2.5,0-4.6,2.1-4.6,4.6   c0,2.5,2.1,4.6,4.6,4.6c2.5,0,4.6-2.1,4.6-4.6C68.1,53.2,66,51.1,63.5,51.1z M63.5,63.2c-2.5,0-4.6,2.1-4.6,4.6s2.1,4.6,4.6,4.6   c2.5,0,4.6-2.1,4.6-4.6S66,63.2,63.5,63.2z"/>
</g>
<g id="Calque_7" display="none">
	<path display="inline" d="M29.6,63.8c-2.9,0-5.2,2.3-5.2,5.2c0,2.9,2.3,5.2,5.2,5.2c2.9,0,5.2-2.3,5.2-5.2   C34.8,66.1,32.5,63.8,29.6,63.8z M74.7,63.8c-2.9,0-5.2,2.3-5.2,5.2c0,2.9,2.3,5.2,5.2,5.2c2.9,0,5.2-2.3,5.2-5.2   C79.9,66.1,77.5,63.8,74.7,63.8z M60.2,24.9h-7.3c-4.1,0-6.8,2.5-7.9,5.4c-0.9,2.4-2.3,5.9-2.3,7.5c0,1.6,1.3,2.8,2.8,2.8h14.7   c1.6,0,2.8-1.3,2.8-2.8V27.8C63,26.2,61.8,24.9,60.2,24.9z M60.5,44.6h-4.9c-0.9,0-1.6,0.7-1.6,1.6c0,0.9,0.7,1.6,1.6,1.6h4.9   c0.9,0,1.6-0.7,1.6-1.6C62.1,45.3,61.4,44.6,60.5,44.6z M94.4,62.1l-8.2-35.6c-1.1-4.4-5.3-7.7-9.8-7.8l-25.9,0   c-4.5,0.1-9.1,3-11,7l-2.9,6.2c-1.3,2.9-5.4,6.1-8.5,6.7l-10.5,2.1c-4.4,0.9-8.3,4.8-9.3,9.1L5.6,62.1c-0.1,0.6-0.2,1.2-0.2,1.7   c0,1.9,0.7,3.6,2,4.8c1.3,1.2,3,1.9,5,1.9c0,0,0,0,0,0h5c0.7,6.1,5.9,10.8,12.2,10.8c6.3,0,11.5-4.7,12.2-10.8h20.6   c0.7,6.1,5.9,10.8,12.2,10.8c6.3,0,11.5-4.7,12.2-10.8h0.8c2,0,3.7-0.7,5-1.9c1.3-1.2,2-2.9,2-4.8C94.6,63.3,94.6,62.7,94.4,62.1z    M29.6,78.3c-5.1,0-9.3-4.2-9.3-9.3c0-5.1,4.2-9.3,9.3-9.3c5.1,0,9.3,4.2,9.3,9.3C38.9,74.2,34.7,78.3,29.6,78.3z M74.7,78.3   c-5.1,0-9.3-4.2-9.3-9.3c0-5.1,4.2-9.3,9.3-9.3c5.1,0,9.3,4.2,9.3,9.3C84,74.2,79.8,78.3,74.7,78.3z M87.7,67.5h-0.8   c-0.7-6.1-5.9-10.8-12.2-10.8c-6.3,0-11.5,4.7-12.2,10.8H41.8c-0.7-6.1-5.9-10.8-12.2-10.8c-6.3,0-11.5,4.7-12.2,10.8h-5   c-2.5-0.1-3.9-1.5-4-3.7c0-0.3,0-0.7,0.1-1.1l2.8-12.3c0.6-3,4-6.3,7-6.8l10.5-2.1c4.3-0.9,8.7-4.4,10.6-8.3l2.9-6.2   c1.2-2.8,5.3-5.4,8.3-5.3h25.9c3-0.1,6.3,2.6,6.9,5.5l8.2,35.6c0.1,0.4,0.1,0.8,0.1,1.1C91.6,66,90.2,67.5,87.7,67.5z"/>
</g>
<g id="Calque_8" display="none">
	<path display="inline" d="M86.4,12.7H13.6c-2.7,0-4.8,2.1-4.8,4.8v42.9c0,2.7,2.1,4.8,4.8,4.8l24.3,0v10.4h-6c-3,0-5.4,2.4-5.4,5.4   v0.9c0,3,2.4,5.4,5.4,5.4h36.2c3,0,5.4-2.4,5.4-5.4h0V81c0-3-2.4-5.4-5.4-5.4h-6V65.1l24.3,0c2.7,0,4.8-2.2,4.8-4.8V17.5   C91.2,14.8,89.1,12.7,86.4,12.7z M68.1,79.1c1,0,1.9,0.8,1.9,1.9v0.9h0c0,1-0.8,1.9-1.9,1.9H31.9c-1,0-1.9-0.8-1.9-1.9l0-0.9   c0-1,0.9-1.9,1.9-1.9H68.1z M41.4,75.5V65.1H50h8.6v10.4H41.4z M87.7,60.3c0,0.7-0.6,1.3-1.3,1.3H62.1H37.9H13.6   c-0.7,0-1.3-0.6-1.3-1.3l0-42.9c0-0.7,0.6-1.3,1.3-1.3l72.9,0c0.7,0,1.3,0.6,1.3,1.3V60.3z M23.2,43.9L36,22.3H22.1   c-1.7,0-3,1.4-3,3v27.1c0,1.7,1.4,3,3,3h3.5l9.9-15.9L23.2,43.9z M77.9,22.3h-36l-7.2,12.1l12.8-4.5L31.6,55.5h46.3   c1.7,0,3-1.4,3-3V25.3C80.9,23.7,79.6,22.3,77.9,22.3z"/>
</g>
<g id="Calque_9" display="none">
	<path display="inline" d="M92.5,42.5c-0.2-1.4-1-2.5-2.1-3.3L53,12.5c-0.9-0.6-1.9-1-3-1c-1.1,0-2.1,0.3-3,1l-7.3,5.2v-1.5   c0-2.2-1.8-4-4-4h-6.9c-2.2,0-4,1.8-4,4v12.1L9.6,39.2c-1.1,0.8-1.9,2-2.1,3.3c-0.2,1.4,0.1,2.7,0.9,3.8c1,1.3,2.5,2.2,4.2,2.2   c1.1,0,2.1-0.3,3-1l0.3-0.2v39.3c0,0.5,0.2,0.9,0.5,1.3c0.3,0.3,0.8,0.5,1.3,0.5h23.1h18.5h23.1c0.5,0,0.9-0.2,1.3-0.5   c0.3-0.3,0.5-0.8,0.5-1.3V47.3l0.3,0.2c0.9,0.6,1.9,1,3,1c1.7,0,3.2-0.8,4.2-2.2C92.4,45.2,92.7,43.8,92.5,42.5z M28.4,16.2   c0-0.3,0.2-0.5,0.5-0.5h6.9c0.3,0,0.5,0.2,0.5,0.5v4l-7.8,5.6V16.2z M57.5,84.9h-15V61.5c0-0.3,0.2-0.5,0.5-0.5l14,0   c0.3,0,0.5,0.2,0.5,0.5L57.5,84.9z M80.6,84.9H61V61.5c0-2.2-1.8-4-4-4H43c-2.2,0-4,1.8-4,4l0,23.4H19.4V44.8L50,23l30.6,21.8V84.9   z M88.7,44.3c-0.3,0.4-0.8,0.7-1.3,0.7c-0.3,0-0.6-0.1-0.9-0.3L50,18.7l-36.5,26c-0.3,0.2-0.6,0.3-0.9,0.3c-0.5,0-1-0.2-1.3-0.7   c-0.5-0.7-0.3-1.7,0.4-2.2l37.4-26.6c0.3-0.2,0.6-0.3,0.9-0.3c0.3,0,0.6,0.1,0.9,0.3L88.3,42v0C89,42.6,89.2,43.5,88.7,44.3z    M46.2,71.6c-1.3,0-2.4,1.1-2.4,2.4c0,1.3,1.1,2.4,2.4,2.4c1.3,0,2.4-1.1,2.4-2.4C48.6,72.7,47.5,71.6,46.2,71.6z M40.8,42   c0,5.1,4.1,9.2,9.2,9.2c5.1,0,9.2-4.1,9.2-9.2c0-5.1-4.1-9.2-9.2-9.2C44.9,32.8,40.8,36.9,40.8,42z M56.2,42c0,3.4-2.8,6.2-6.2,6.2   c-3.4,0-6.2-2.8-6.2-6.2s2.8-6.2,6.2-6.2C53.4,35.7,56.2,38.5,56.2,42z"/>
</g>
<g id="Calque_10" display="none">
	<path display="inline" d="M48.5,54.2L68,20.4c0.6-1,0.2-2.2-0.7-2.8c-0.3-0.2-0.7-0.3-1-0.3c-0.7,0-1.4,0.4-1.8,1L45,52.1   L48.5,54.2z M78.3,14.7c-1.3-0.7-2.7-1.2-4.2-1.3c-0.8-1-1.8-1.9-3-2.6c-1.3-0.7-2.7-1.2-4.1-1.3c-0.8-1-1.8-2-3-2.6   C62.5,6,60.8,5.5,59,5.5c-3.6,0-7,1.9-8.8,5.1L30.7,44.4c-0.2,0-0.4,0-0.7,0c-2,0-4,1-5,2.9l-5,8.7c-0.5,0.9-0.8,1.9-0.8,2.9   c0,2,1,4,2.9,5.1l1.3,0.7l-0.5,6.5c-1,0.4-1.8,1.3-2.2,2.4L20.4,74c-0.2,0.5-0.2,0.9-0.2,1.4c0,0.2,0,0.5,0.1,0.7   c-0.7,0.4-1.3,1.1-1.6,1.9l-0.2,0.5c-0.2,0.4-0.2,0.9-0.2,1.3c0,0.2,0,0.4,0,0.6c-0.6,0.4-1.2,1-1.4,1.8l-0.1,0.4   c-0.1,0.4-0.2,0.8-0.2,1.2c0,1.7,1,3.1,2.5,3.9l1,0.5c0.7,1.6,2.1,3.1,4,4.2c2.3,1.3,4.8,1.7,6.6,1.2l0.8,0.4   c0.7,0.3,1.4,0.5,2.2,0.5c0,0,0,0,0,0c1.2,0,2.5-0.5,3.3-1.7l0,0l0.2-0.4c0.3-0.5,0.5-1.1,0.5-1.7c0.7-0.3,1.4-0.8,1.9-1.5l0,0   l0.3-0.4c0.4-0.6,0.6-1.3,0.6-1.9c0.8-0.3,1.6-0.8,2.2-1.7l0.3-0.5c0.3-0.5,0.5-1,0.6-1.6l5.3-3.6l1.2,0.7c0.9,0.5,1.9,0.8,2.9,0.8   c2,0,4-1,5-2.9l5-8.7c0.5-0.9,0.8-1.9,0.8-2.9c0-1.5-0.6-2.9-1.6-4L82,28.6C84.8,23.8,83.2,17.5,78.3,14.7z M66.2,13.3   c0.9,0,1.9,0.2,2.8,0.7c0.1,0,0.2,0.1,0.3,0.1c2.9,1.7,3.9,5.4,2.2,8.3L52,56.2l-10.6-6.1l19.5-33.7C62.1,14.4,64.1,13.3,66.2,13.3   z M34.4,46l19.3-33.4c1.1-2,3.2-3.1,5.3-3.1c1,0,2.1,0.3,3.1,0.8c0,0,0,0,0,0c-1.7,0.8-3.1,2-4.1,3.5c-0.3,0.2-0.5,0.4-0.7,0.7   L37.9,48.1l-5-2.9L34.4,46z M35.1,91l-0.2,0.4v0c-0.2,0.3-0.6,0.5-1.2,0.5c-0.3,0-0.7-0.1-1-0.2l-12.4-6.3   c-0.7-0.3-1.1-1.1-1.1-1.6c0-0.1,0-0.2,0.1-0.3l0.1-0.4c0.1-0.4,0.4-0.6,1-0.6c0.2,0,0.5,0.1,0.8,0.2l0.2,0.1c0,0,0,0,0.1,0l13,6.5   c0.6,0.3,0.9,0.8,0.9,1.2C35.3,90.7,35.2,90.8,35.1,91z M37.9,87.4l-0.3,0.4l0,0c-0.2,0.4-0.8,0.6-1.4,0.6c-0.3,0-0.7-0.1-1-0.2   L35,88.1c0,0,0,0-0.1,0l-13-6.5c-0.7-0.4-1.1-1.1-1.1-1.7c0-0.2,0-0.3,0.1-0.4l0.2-0.5c0.2-0.5,0.6-0.8,1.2-0.8   c0.3,0,0.5,0.1,0.8,0.2l0.2,0.1c0,0,0.1,0,0.1,0.1l13.8,6.9c0.6,0.3,0.9,0.9,0.9,1.3C38.1,87,38,87.2,37.9,87.4z M41.1,82.8   c0,0.1-0.1,0.2-0.1,0.3c0,0,0,0.1,0,0.1l-0.3,0.5c-0.3,0.5-1,0.8-1.6,0.8c-0.3,0-0.7-0.1-1-0.2l-0.2-0.1c0,0-0.1,0-0.1-0.1   l-13.7-6.9c-0.7-0.4-1.1-1.1-1.1-1.8c0-0.2,0-0.4,0.1-0.5l0.2-0.5c0.2-0.5,0.6-0.8,1.1-0.9c0.1,0,0.2,0,0.3,0   c0.3,0,0.5,0.1,0.8,0.2L40.1,81c0.7,0.3,1,0.9,1,1.5C41.2,82.6,41.2,82.7,41.1,82.8z M59.8,67.4l-5,8.7c-0.3,0.6-0.9,0.9-1.5,0.9   c-0.3,0-0.6-0.1-0.9-0.2L50,75.4c-0.7-0.4-1.5-0.4-2.2,0.1l-5.6,3.8L42,79.1c-0.2-0.2-0.4-0.3-0.7-0.4L41,78.5l-14-8.1l0.5-6.7   c0.1-0.8-0.3-1.5-1-1.9l-2.3-1.4c-0.6-0.3-0.9-0.9-0.9-1.5c0-0.3,0.1-0.6,0.2-0.9l5-8.7c0.3-0.6,0.9-0.9,1.5-0.9   c0.3,0,0.6,0.1,0.9,0.2L59.1,65c0.6,0.3,0.9,0.9,0.9,1.5C60,66.8,59.9,67.1,59.8,67.4z M78.5,26.6L59.1,60.3l-3.5-2L75,24.5   c0.2-0.3,0.3-0.7,0.3-1c0.8-1.7,1-3.6,0.8-5.4c0.1,0,0.2,0.1,0.2,0.1C79.2,19.9,80.2,23.7,78.5,26.6z"/>
</g>
<g id="Calque_11" display="none">
	<path display="inline" d="M93.7,22.5c-0.3-2.5-2.5-4.4-5-4.4c-0.2,0-0.4,0-0.6,0l-11.2,1.4c-2.3,0.3-4.1,2.1-4.4,4.3l-0.7,4.9l0,0   l-64,0c-0.5,0-1,0.2-1.3,0.6c-0.3,0.4-0.4,0.9-0.3,1.4l6.5,28.8c0.2,0.8,0.9,1.3,1.6,1.3h53.1L67,64.1H19.2c-2.8,0-5,2.3-5,5.1   c0,2.8,2.3,5,5,5h1.6c-0.6,0.8-0.9,1.8-0.9,2.9c0,2.7,2.2,4.9,4.9,4.9s4.9-2.2,4.9-4.9c0-1.1-0.4-2.1-0.9-2.9h30.6   c-0.6,0.8-0.9,1.8-0.9,2.9c0,2.7,2.2,4.9,4.9,4.9s4.9-2.2,4.9-4.9c0-1.1-0.4-2.1-0.9-2.9h4.2c2.5,0,4.7-1.9,5-4.4L82,29l7.3-0.9   C92.1,27.8,94.1,25.3,93.7,22.5z M69.2,48.1h-9.1v-7h10.1L69.2,48.1z M46.2,39.1h-9.8v-7.1h9.8V39.1z M48.2,32.1h9.8v7.1h-9.8V32.1   z M46.2,41.1v7h-9.8v-7H46.2z M34.4,39.1h-9.8v-7.1h9.8V39.1z M34.4,41.1v7h-9.8v-7H34.4z M34.4,50.1v7.4h-9.8v-7.4H34.4z    M36.4,50.1h9.8v7.4h-9.8V50.1z M48.2,50.1h9.8v7.4h-9.8V50.1z M48.2,48.1v-7h9.8v7H48.2z M70.4,39.1H60.1v-7.1h11.3L70.4,39.1z    M22.6,32.1v7.1h-11L10,32.1H22.6z M12,41.1h10.5v7h-9L12,41.1z M14.1,50.1h8.5v7.4h-6.9L14.1,50.1z M60.1,57.5v-7.4h8.8l-1,7.4   H60.1z M88.9,24.8L79,26l-6,43.4c-0.1,0.8-0.8,1.5-1.7,1.5H19.2c-0.9,0-1.7-0.8-1.7-1.7c0-0.9,0.8-1.7,1.7-1.7h50.7l6-43.2   c0.1-0.8,0.7-1.3,1.5-1.4l11.2-1.4c0.1,0,0.1,0,0.2,0c0.8,0,1.6,0.6,1.7,1.5C90.5,23.8,89.9,24.7,88.9,24.8z"/>
</g>
</svg>