<svg xmlns="http://www.w3.org/2000/svg" xmlns:xlink="http://www.w3.org/1999/xlink" version="1.1" id="Your_Icon" x="0px" y="0px" viewBox="0 0 612 792" enable-background="new 0 0 612 792" xml:space="preserve" height="100px" width="100px">
<g>
	<path d="M303.583,272.572l-108.899,197.37l-127.7-136.121l70.086,231.397h339.844l70.086-231.397L419.287,469.942L303.583,272.572z    M306.985,466.386c0,0-27.607-18.213-27.607-40.68c0-22.467,27.607-40.68,27.607-40.68s27.607,18.213,27.607,40.68   S306.985,466.386,306.985,466.386z"/>
	<path d="M473.388,585.757H141.023c-3.611,0-6.536,2.925-6.536,6.536s2.925,6.536,6.536,6.536h332.365   c3.611,0,6.536-2.925,6.536-6.536S476.993,585.757,473.388,585.757z"/>
	<circle cx="48.36" cy="303.196" r="17.76"/>
	<circle cx="565.617" cy="310.002" r="15.783"/>
	<circle cx="303.552" cy="221.525" r="28.354"/>
</g>
</svg>